<svg xmlns="http://www.w3.org/2000/svg" width="277.488" height="199.727" viewBox="0 0 277.488 199.727">
  <g id="Grupo_43784" data-name="Grupo 43784" transform="translate(12554.627 -2701.449)">
    <g id="Grupo_43779" data-name="Grupo 43779" transform="translate(-12382.718 2701.449)">
      <rect id="Rectángulo_15345" data-name="Rectángulo 15345" width="43.415" height="109.939" transform="translate(0)" fill="#e6007e"/>
      <g id="Grupo_6443" data-name="Grupo 6443" transform="translate(1.305 2.298)">
        <path id="Trazado_5311" data-name="Trazado 5311" d="M2266.629,418.32h-40.805V322.51h40.805Zm-40.237-.568h39.669V323.078h-39.669Z" transform="translate(-2225.824 -322.51)" fill="#fff"/>
      </g>
      <g id="Grupo_6444" data-name="Grupo 6444" transform="translate(5.68 6.122)">
        <rect id="Rectángulo_15346" data-name="Rectángulo 15346" width="33.068" height="7.616" rx="3.808" transform="translate(0 0.346)" fill="#a5005d"/>
        <rect id="Rectángulo_15347" data-name="Rectángulo 15347" width="33.068" height="2.65" fill="#620038"/>
      </g>
      <g id="Grupo_6445" data-name="Grupo 6445" transform="translate(5.68 15.656)">
        <rect id="Rectángulo_15348" data-name="Rectángulo 15348" width="33.068" height="7.616" rx="3.808" transform="translate(0 0.346)" fill="#a5005d"/>
        <rect id="Rectángulo_15349" data-name="Rectángulo 15349" width="33.068" height="2.65" fill="#620038"/>
      </g>
      <g id="Grupo_6446" data-name="Grupo 6446" transform="translate(5.68 25.089)">
        <rect id="Rectángulo_15350" data-name="Rectángulo 15350" width="33.068" height="7.616" rx="3.808" transform="translate(0 0.346)" fill="#a5005d"/>
        <rect id="Rectángulo_15351" data-name="Rectángulo 15351" width="33.068" height="2.65" fill="#620038"/>
      </g>
      <g id="Grupo_6447" data-name="Grupo 6447" transform="translate(5.68 34.92)">
        <rect id="Rectángulo_15352" data-name="Rectángulo 15352" width="33.068" height="7.616" rx="3.808" transform="translate(0 0.346)" fill="#a5005d"/>
        <rect id="Rectángulo_15353" data-name="Rectángulo 15353" width="33.068" height="2.65" fill="#620038"/>
      </g>
      <g id="Grupo_6448" data-name="Grupo 6448" transform="translate(5.68 44.454)">
        <rect id="Rectángulo_15354" data-name="Rectángulo 15354" width="33.068" height="7.616" rx="3.808" transform="translate(0 0.346)" fill="#a5005d"/>
        <rect id="Rectángulo_15355" data-name="Rectángulo 15355" width="33.068" height="2.65" fill="#620038"/>
      </g>
      <g id="Grupo_6449" data-name="Grupo 6449" transform="translate(5.68 53.987)">
        <rect id="Rectángulo_15356" data-name="Rectángulo 15356" width="33.068" height="7.616" rx="3.808" transform="translate(0 0.346)" fill="#a5005d"/>
        <rect id="Rectángulo_15357" data-name="Rectángulo 15357" width="33.068" height="2.65" fill="#620038"/>
      </g>
      <ellipse id="Elipse_604" data-name="Elipse 604" cx="5.617" cy="5.617" rx="5.617" ry="5.617" transform="translate(14.908 66.785)" fill="#620038"/>
      <ellipse id="Elipse_605" data-name="Elipse 605" cx="2.652" cy="2.652" rx="2.652" ry="2.652" transform="translate(17.874 69.751)" fill="#e6007e"/>
      <ellipse id="Elipse_606" data-name="Elipse 606" cx="3.674" cy="3.674" rx="3.674" ry="3.674" transform="translate(16.851 81.141)" fill="#620038"/>
      <ellipse id="Elipse_607" data-name="Elipse 607" cx="1.734" cy="1.734" rx="1.734" ry="1.734" transform="translate(18.791 83.081)" fill="#e6007e"/>
    </g>
    <g id="Grupo_43780" data-name="Grupo 43780" transform="translate(-12320.554 2701.449)">
      <rect id="Rectángulo_15358" data-name="Rectángulo 15358" width="43.415" height="109.939" transform="translate(0)" fill="#e6007e"/>
      <g id="Grupo_6451" data-name="Grupo 6451" transform="translate(1.305 2.298)">
        <path id="Trazado_5312" data-name="Trazado 5312" d="M2726.969,418.32h-40.805V322.51h40.805Zm-40.237-.568H2726.4V323.078h-39.669Z" transform="translate(-2686.163 -322.51)" fill="#fff"/>
      </g>
      <g id="Grupo_6452" data-name="Grupo 6452" transform="translate(5.68 6.122)">
        <rect id="Rectángulo_15359" data-name="Rectángulo 15359" width="33.068" height="7.616" rx="3.808" transform="translate(0 0.346)" fill="#a5005d"/>
        <rect id="Rectángulo_15360" data-name="Rectángulo 15360" width="33.068" height="2.65" fill="#620038"/>
      </g>
      <g id="Grupo_6453" data-name="Grupo 6453" transform="translate(5.68 15.656)">
        <rect id="Rectángulo_15361" data-name="Rectángulo 15361" width="33.068" height="7.616" rx="3.808" transform="translate(0 0.346)" fill="#a5005d"/>
        <rect id="Rectángulo_15362" data-name="Rectángulo 15362" width="33.068" height="2.65" fill="#620038"/>
      </g>
      <g id="Grupo_6454" data-name="Grupo 6454" transform="translate(5.68 25.089)">
        <rect id="Rectángulo_15363" data-name="Rectángulo 15363" width="33.068" height="7.616" rx="3.808" transform="translate(0 0.346)" fill="#a5005d"/>
        <rect id="Rectángulo_15364" data-name="Rectángulo 15364" width="33.068" height="2.65" fill="#620038"/>
      </g>
      <g id="Grupo_6455" data-name="Grupo 6455" transform="translate(5.68 34.92)">
        <rect id="Rectángulo_15365" data-name="Rectángulo 15365" width="33.068" height="7.616" rx="3.808" transform="translate(0 0.346)" fill="#a5005d"/>
        <rect id="Rectángulo_15366" data-name="Rectángulo 15366" width="33.068" height="2.65" fill="#620038"/>
      </g>
      <g id="Grupo_6456" data-name="Grupo 6456" transform="translate(5.68 44.454)">
        <rect id="Rectángulo_15367" data-name="Rectángulo 15367" width="33.068" height="7.616" rx="3.808" transform="translate(0 0.346)" fill="#a5005d"/>
        <rect id="Rectángulo_15368" data-name="Rectángulo 15368" width="33.068" height="2.65" fill="#620038"/>
      </g>
      <g id="Grupo_6457" data-name="Grupo 6457" transform="translate(5.68 53.987)">
        <rect id="Rectángulo_15369" data-name="Rectángulo 15369" width="33.068" height="7.616" rx="3.808" transform="translate(0 0.346)" fill="#a5005d"/>
        <rect id="Rectángulo_15370" data-name="Rectángulo 15370" width="33.068" height="2.65" fill="#620038"/>
      </g>
      <ellipse id="Elipse_608" data-name="Elipse 608" cx="5.617" cy="5.617" rx="5.617" ry="5.617" transform="translate(14.908 66.785)" fill="#620038"/>
      <ellipse id="Elipse_609" data-name="Elipse 609" cx="2.652" cy="2.652" rx="2.652" ry="2.652" transform="translate(17.874 69.751)" fill="#e6007e"/>
      <ellipse id="Elipse_610" data-name="Elipse 610" cx="3.674" cy="3.674" rx="3.674" ry="3.674" transform="translate(16.851 81.141)" fill="#620038"/>
      <ellipse id="Elipse_611" data-name="Elipse 611" cx="1.734" cy="1.734" rx="1.734" ry="1.734" transform="translate(18.791 83.081)" fill="#e6007e"/>
    </g>
    <g id="Grupo_43781" data-name="Grupo 43781" transform="translate(-12355.693 2709.948)">
      <rect id="Rectángulo_15371" data-name="Rectángulo 15371" width="51.14" height="110.227" transform="translate(0.312 0.086)" fill="#e6007e"/>
      <g id="Grupo_6459" data-name="Grupo 6459" transform="translate(0 0)">
        <path id="Trazado_5313" data-name="Trazado 5313" d="M2468.013,478.937h-51.729V368.43h51.729Zm-51.16-.568h50.592V369h-50.592Z" transform="translate(-2416.284 -368.43)" fill="#620038"/>
      </g>
      <g id="Grupo_6460" data-name="Grupo 6460" transform="translate(1.872 2.582)">
        <path id="Trazado_5314" data-name="Trazado 5314" d="M2478.133,492.891h-47.984V387.547h47.984Zm-47.416-.568h46.847V388.115h-46.847Z" transform="translate(-2430.149 -387.547)" fill="#fff"/>
      </g>
      <g id="Grupo_6461" data-name="Grupo 6461" transform="translate(6.971 6.636)">
        <path id="Trazado_5315" data-name="Trazado 5315" d="M2505.313,426.937H2467.9v-9.363h37.41Zm-36.842-.568h36.273v-8.226h-36.273Z" transform="translate(-2467.903 -417.574)" fill="#3f0225"/>
      </g>
      <g id="Grupo_6462" data-name="Grupo 6462" transform="translate(6.971 17.261)">
        <path id="Trazado_5316" data-name="Trazado 5316" d="M2505.313,505.618H2467.9v-9.363h37.41Zm-36.842-.568h36.273v-8.227h-36.273Z" transform="translate(-2467.903 -496.255)" fill="#3f0225"/>
      </g>
      <g id="Grupo_6463" data-name="Grupo 6463" transform="translate(6.971 28.086)">
        <path id="Trazado_5317" data-name="Trazado 5317" d="M2505.313,585.774H2467.9v-9.363h37.41Zm-36.842-.568h36.273v-8.226h-36.273Z" transform="translate(-2467.903 -576.411)" fill="#3f0225"/>
      </g>
      <g id="Grupo_6464" data-name="Grupo 6464" transform="translate(6.971 49.833)">
        <path id="Trazado_5318" data-name="Trazado 5318" d="M2505.313,746.818H2467.9v-9.363h37.41Zm-36.842-.568h36.273v-8.226h-36.273Z" transform="translate(-2467.903 -737.455)" fill="#3f0225"/>
      </g>
      <g id="Grupo_6465" data-name="Grupo 6465" transform="translate(6.971 60.508)">
        <path id="Trazado_5319" data-name="Trazado 5319" d="M2505.313,825.873H2467.9V816.51h37.41Zm-36.842-.568h36.273v-8.226h-36.273Z" transform="translate(-2467.903 -816.51)" fill="#3f0225"/>
      </g>
      <g id="Grupo_6466" data-name="Grupo 6466" transform="translate(6.971 84.192)">
        <path id="Trazado_5320" data-name="Trazado 5320" d="M2505.313,1001.258H2467.9V991.9h37.41Zm-36.842-.568h36.273v-8.226h-36.273Z" transform="translate(-2467.903 -991.896)" fill="#3f0225"/>
      </g>
      <g id="Grupo_6467" data-name="Grupo 6467" transform="translate(6.971 94.718)">
        <path id="Trazado_5321" data-name="Trazado 5321" d="M2505.313,1079.2H2467.9v-9.363h37.41Zm-36.842-.568h36.273v-8.226h-36.273Z" transform="translate(-2467.903 -1069.841)" fill="#3f0225"/>
      </g>
      <rect id="Rectángulo_15372" data-name="Rectángulo 15372" width="34.26" height="6.405" transform="translate(8.595 8.115)" fill="#fff"/>
      <rect id="Rectángulo_15373" data-name="Rectángulo 15373" width="4.369" height="4.866" transform="translate(13.958 8.885)" fill="#a5005d"/>
      <g id="Grupo_6468" data-name="Grupo 6468" transform="translate(6.971 39.158)">
        <path id="Trazado_5322" data-name="Trazado 5322" d="M2505.313,667.767H2467.9V658.4h37.41Zm-36.842-.568h36.273v-8.226h-36.273Z" transform="translate(-2467.903 -658.404)" fill="#3f0225"/>
      </g>
      <rect id="Rectángulo_15374" data-name="Rectángulo 15374" width="34.26" height="6.405" transform="translate(8.595 40.637)" fill="#fff"/>
      <rect id="Rectángulo_15375" data-name="Rectángulo 15375" width="4.369" height="4.866" transform="translate(18.824 41.406)" fill="#a5005d"/>
      <g id="Grupo_6469" data-name="Grupo 6469" transform="translate(6.971 73.417)">
        <path id="Trazado_5323" data-name="Trazado 5323" d="M2505.313,921.468H2467.9V912.1h37.41Zm-36.842-.568h36.273v-8.226h-36.273Z" transform="translate(-2467.903 -912.105)" fill="#3f0225"/>
      </g>
      <rect id="Rectángulo_15376" data-name="Rectángulo 15376" width="34.26" height="6.405" transform="translate(8.595 74.896)" fill="#fff"/>
      <rect id="Rectángulo_15377" data-name="Rectángulo 15377" width="4.369" height="4.866" transform="translate(31.584 75.666)" fill="#a5005d"/>
    </g>
    <path id="Trazado_15462" data-name="Trazado 15462" d="M-1776.055,1142.894h118.161v-28.821h38.433v-38.313" transform="translate(-10710.467 1744.694)" fill="none" stroke="#582d73" stroke-width="5"/>
    <g id="Grupo_43782" data-name="Grupo 43782" transform="translate(-12554.627 2795.538)">
      <g id="Grupo_6471" data-name="Grupo 6471" transform="translate(32.061 100.243)">
        <rect id="Rectángulo_15378" data-name="Rectángulo 15378" width="65.352" height="5.395" rx="2.697" fill="#232324"/>
      </g>
      <g id="Grupo_6472" data-name="Grupo 6472" transform="translate(57.071 80.499)">
        <rect id="Rectángulo_15379" data-name="Rectángulo 15379" width="15.226" height="21.93" fill="#232324"/>
      </g>
      <g id="Grupo_6473" data-name="Grupo 6473">
        <rect id="Rectángulo_15380" data-name="Rectángulo 15380" width="129.474" height="81.97" rx="8" fill="#232324"/>
      </g>
      <g id="Grupo_6474" data-name="Grupo 6474" transform="translate(1.948 2.337)">
        <rect id="Rectángulo_15381" data-name="Rectángulo 15381" width="125.578" height="73.927" fill="#e6007e"/>
      </g>
      <g id="Grupo_6475" data-name="Grupo 6475" transform="translate(1.37 1.27)">
        <path id="Trazado_5324" data-name="Trazado 5324" d="M876.09,968.82h-1.156V894.893a.258.258,0,0,0-.252-.263H750.763a.258.258,0,0,0-.252.263v73.616h-1.156V894.893a1.441,1.441,0,0,1,1.408-1.469H874.682a1.441,1.441,0,0,1,1.408,1.469Z" transform="translate(-749.355 -893.424)" fill="#4a494a"/>
      </g>
      <g id="Grupo_6476" data-name="Grupo 6476" transform="translate(0 76.666)">
        <path id="Rectángulo_15382" data-name="Rectángulo 15382" d="M0,0H129.474a0,0,0,0,1,0,0V0a5.3,5.3,0,0,1-5.3,5.3H5.3A5.3,5.3,0,0,1,0,0V0A0,0,0,0,1,0,0Z" fill="#333"/>
      </g>
      <g id="Grupo_6484" data-name="Grupo 6484" transform="translate(9.611 14.319)">
        <g id="Grupo_6477" data-name="Grupo 6477">
          <rect id="Rectángulo_15383" data-name="Rectángulo 15383" width="8.491" height="8.491" fill="#cccaca"/>
        </g>
        <g id="Grupo_6478" data-name="Grupo 6478" transform="translate(12.736)">
          <rect id="Rectángulo_15384" data-name="Rectángulo 15384" width="24.169" height="8.491" fill="#cccaca"/>
        </g>
        <g id="Grupo_6479" data-name="Grupo 6479" transform="translate(41.157)">
          <rect id="Rectángulo_15385" data-name="Rectángulo 15385" width="24.169" height="8.491" fill="#cccaca"/>
        </g>
        <g id="Grupo_6483" data-name="Grupo 6483" transform="translate(74.414)">
          <g id="Grupo_6480" data-name="Grupo 6480">
            <rect id="Rectángulo_15386" data-name="Rectángulo 15386" width="8.491" height="8.491" fill="#cccaca"/>
          </g>
          <g id="Grupo_6481" data-name="Grupo 6481" transform="translate(12.854)">
            <rect id="Rectángulo_15387" data-name="Rectángulo 15387" width="8.491" height="8.491" fill="#cccaca"/>
          </g>
          <g id="Grupo_6482" data-name="Grupo 6482" transform="translate(25.827)">
            <rect id="Rectángulo_15388" data-name="Rectángulo 15388" width="8.491" height="8.491" fill="#cccaca"/>
          </g>
        </g>
      </g>
      <g id="Grupo_6492" data-name="Grupo 6492" transform="translate(9.611 52.912)">
        <g id="Grupo_6485" data-name="Grupo 6485">
          <rect id="Rectángulo_15389" data-name="Rectángulo 15389" width="8.491" height="8.491" fill="#cccaca"/>
        </g>
        <g id="Grupo_6486" data-name="Grupo 6486" transform="translate(12.736)">
          <rect id="Rectángulo_15390" data-name="Rectángulo 15390" width="24.169" height="8.491" fill="#cccaca"/>
        </g>
        <g id="Grupo_6487" data-name="Grupo 6487" transform="translate(41.157)">
          <rect id="Rectángulo_15391" data-name="Rectángulo 15391" width="24.169" height="8.491" fill="#cccaca"/>
        </g>
        <g id="Grupo_6491" data-name="Grupo 6491" transform="translate(74.414)">
          <g id="Grupo_6488" data-name="Grupo 6488">
            <rect id="Rectángulo_15392" data-name="Rectángulo 15392" width="8.491" height="8.491" fill="#cccaca"/>
          </g>
          <g id="Grupo_6489" data-name="Grupo 6489" transform="translate(12.854)">
            <rect id="Rectángulo_15393" data-name="Rectángulo 15393" width="8.491" height="8.491" fill="#cccaca"/>
          </g>
          <g id="Grupo_6490" data-name="Grupo 6490" transform="translate(25.827)">
            <rect id="Rectángulo_15394" data-name="Rectángulo 15394" width="8.491" height="8.491" fill="#cccaca"/>
          </g>
        </g>
      </g>
      <rect id="Rectángulo_15395" data-name="Rectángulo 15395" width="124.433" height="18.129" transform="translate(2.469 28.786)" fill="#e660a7"/>
      <g id="Grupo_6501" data-name="Grupo 6501" transform="translate(9.611 30.323)">
        <g id="Grupo_6493" data-name="Grupo 6493" transform="translate(0 3.223)">
          <rect id="Rectángulo_15396" data-name="Rectángulo 15396" width="8.491" height="8.491" fill="#222224"/>
        </g>
        <g id="Grupo_6494" data-name="Grupo 6494" transform="translate(12.736 3.223)">
          <rect id="Rectángulo_15397" data-name="Rectángulo 15397" width="24.169" height="8.491" fill="#222224"/>
        </g>
        <g id="Grupo_6495" data-name="Grupo 6495" transform="translate(41.157 3.223)">
          <rect id="Rectángulo_15398" data-name="Rectángulo 15398" width="24.169" height="8.491" fill="#222224"/>
        </g>
        <g id="Grupo_6499" data-name="Grupo 6499" transform="translate(74.414 3.223)">
          <g id="Grupo_6496" data-name="Grupo 6496">
            <rect id="Rectángulo_15399" data-name="Rectángulo 15399" width="8.491" height="8.491" fill="#222224"/>
          </g>
          <g id="Grupo_6497" data-name="Grupo 6497" transform="translate(12.854)">
            <rect id="Rectángulo_15400" data-name="Rectángulo 15400" width="8.491" height="8.491" fill="#222224"/>
          </g>
          <g id="Grupo_6498" data-name="Grupo 6498" transform="translate(25.827)">
            <rect id="Rectángulo_15401" data-name="Rectángulo 15401" width="8.491" height="8.491" fill="#222224"/>
          </g>
        </g>
        <g id="Grupo_6500" data-name="Grupo 6500" transform="translate(70.955)">
          <path id="Trazado_5325" data-name="Trazado 5325" d="M1377.052,1123.629h-41.236v-15.055h41.236Zm-40.45-.786h39.664V1109.36H1336.6Z" transform="translate(-1335.816 -1108.574)" fill="#fff"/>
        </g>
      </g>
    </g>
  </g>
</svg>
